<svg xmlns="http://www.w3.org/2000/svg" fill="#ed3e44" width="29" height="40">
  <path d="M14.533 40c-2.3 0-6.433-5.14-12.4-15.418C.852 21.597 0 18.348 0 14.925 0 6.672 6.482 0 14.5 0S29 6.672 29 14.925c0 3.423-.853 6.672-2.132 9.657C20.945 34.86 16.833 40 14.533 40zM3.486 18h2.028c.266 0 .486-.241.486-.533v-4.934C6 12.24 5.78 12 5.514 12H3.486c-.266 0-.486.241-.486.533v4.934c0 .292.22.533.486.533zM12 12.6h5c-.231-.36-.617-.6-1.07-.6h-2.86c-.444 0-.839.24-1.07.6zm0 5.4h.018v.457c0 .846.527 1.543 1.186 1.543h2.61c.65 0 1.186-.686 1.186-1.543v-.308c-.018.022-.035.034-.053.057-.685.743-1.529 1.108-2.372 1.108-.844 0-1.687-.365-2.373-1.108-.061-.069-.14-.137-.202-.206zm4.118-.701l1.465-1.091c1.178-.615 2.602-.745 3.417-.762V14H8v1.446c.815.017 2.24.147 3.417.762l1.465 1.082c.066.06.132.113.19.165a2.143 2.143 0 0 0 2.856 0c.058-.052.132-.104.19-.156zM26 12.533c0-.292-.22-.533-.486-.523h-2.028c-.266 0-.486.241-.486.533v4.924c0 .292.22.533.486.533h2.028c.266 0 .486-.241.486-.533z"/>
</svg>
