<svg height="26" width="28" xmlns="http://www.w3.org/2000/svg"><path d="M27.526 24.502l-2.584-11.458c-.087-.397-.431-.705-.819-.705h-4.092c.646-1.498 1.077-3.129 1.077-4.847C21.108 3.349 17.834 0 13.785 0c-4.05 0-7.323 3.35-7.323 7.492 0 1.718.43 3.349 1.076 4.847H3.446c-.388 0-.732.264-.818.705L.043 24.502c-.103.632.358 1.101.862 1.101H26.75c.609 0 .957-.635.775-1.101zm-13.741-4.23s1.766-1.367 3.532-3.57c.086.176.215.352.345.528v5.773c-3.33-.11-5.308-2.762-7.754-4.847v-1.85c1.895 2.423 3.877 3.965 3.877 3.965zm3.877-3.967v.088l-.044-.044c0-.044.044-.044.044-.044zm0 7.095v.397H9.908v-5.068C12.406 21 14.38 23.3 17.662 23.4zm.43-5.597c1.807 2.156 3.862 2.256 6.376.97l.301 1.41c-2.757 1.983-4.91 2.776-6.72 2.82v-5.2zm5.342-3.701l.947 4.186c-2.51 1.388-4.641 1.154-6.29-1.234v-1.366c.345-.485.733-1.057 1.035-1.586zm-19.299 0h4.308c.345.573.69 1.101 1.034 1.586v2.115c-2.21-1.583-4.43-1.31-6.246.353zm-1.077 4.803c2.209-2.26 4.342-2.149 6.419-.529v5.42H1.938zm15.034 4.892V23.4c1.853-.044 4.05-.793 6.806-2.776l.733 3.173zM8.244 8.774A.246.246 0 0 1 8 8.528V6.25c0-.134.11-.245.244-.245h1.015c.134 0 .244.111.244.245v2.278c0 .135-.11.246-.244.246zm4.394-2.403a.614.614 0 0 1 .51-.278h1.365c.216 0 .4.111.51.278zm-.11 2.992c.031.028.073.056.105.083.358.302.8.45 1.24.45s.883-.148 1.242-.45c.01-.009.018-.013.027-.023v.126c0 .347-.28.626-.62.626h-1.365a.624.624 0 0 1-.62-.626v-.186zm2.247-.538c-.032.028-.074.056-.106.083-.464.39-1.135.39-1.595 0-.032-.027-.069-.055-.106-.088l-.818-.58c-.657-.329-1.452-.398-1.907-.408v-.774H17.5v.774c-.455.01-1.25.08-1.907.408zM19.495 6c.133 0 .244.111.244.246v2.277c0 .135-.11.246-.244.246h-1.016a.246.246 0 0 1-.243-.246V6.25c0-.134.11-.245.243-.245h1.016z"/></svg>